<?xml version="1.0" encoding="utf-8"?>
<svg viewBox="0 0 500 500" width="1920px" height="1080px" xmlns="http://www.w3.org/2000/svg">
  <rect x="0" y="0" width="1920" height="1080" fill="#001220" transform="matrix(1, 0, 0, 1, -430.657258, -290.000003)"/>
  <path d="M -430.657 151.713 L -384.957 151.713 C -339.357 151.713 -247.957 151.713 -156.457 155.561 C -64.957 159.489 26.643 167.185 118.143 178.809 C 209.643 190.433 301.043 205.985 392.343 196.445 C 483.643 186.986 575.043 152.514 666.343 153.156 C 757.643 153.877 849.043 189.631 940.543 190.433 C 1032.043 191.234 1123.643 157.084 1215.143 147.143 C 1306.643 137.283 1398.043 151.713 1443.643 158.928 L 1489.343 166.143 L 1489.343 -290 L 1443.643 -290 C 1398.043 -290 1306.643 -290 1215.143 -290 C 1123.643 -290 1032.043 -290 940.543 -290 C 849.043 -290 757.643 -290 666.343 -290 C 575.043 -290 483.643 -290 392.343 -290 C 301.043 -290 209.643 -290 118.143 -290 C 26.643 -290 -64.957 -290 -156.457 -290 C -247.957 -290 -339.357 -290 -384.957 -290 L -430.657 -290 L -430.657 151.713 Z" fill="#fa7268" style=""/>
  <path d="M -430.657 127.663 L -384.957 111.47 C -339.357 95.356 -247.957 62.969 -156.457 48.94 C -64.957 34.911 26.643 39.24 118.143 58.721 C 209.643 78.201 301.043 112.993 392.343 113.875 C 483.643 114.837 575.043 81.969 666.343 74.112 C 757.643 66.176 849.043 83.331 940.543 83.331 C 1032.043 83.331 1123.643 66.176 1215.143 64.573 C 1306.643 62.969 1398.043 76.918 1443.643 83.812 L 1489.343 90.787 L 1489.343 -290 L 1443.643 -290 C 1398.043 -290 1306.643 -290 1215.143 -290 C 1123.643 -290 1032.043 -290 940.543 -290 C 849.043 -290 757.643 -290 666.343 -290 C 575.043 -290 483.643 -290 392.343 -290 C 301.043 -290 209.643 -290 118.143 -290 C 26.643 -290 -64.957 -290 -156.457 -290 C -247.957 -290 -339.357 -290 -384.957 -290 L -430.657 -290 L -430.657 127.663 Z" fill="#ef5f67" style=""/>
  <path d="M -430.657 -65.536 L -384.957 -64.173 C -339.357 -62.891 -247.957 -60.165 -156.457 -45.495 C -64.957 -30.824 26.643 -4.049 118.143 0.039 C 209.643 4.208 301.043 -14.23 392.343 -20.643 C 483.643 -27.057 575.043 -21.445 666.343 -22.247 C 757.643 -23.048 849.043 -30.263 940.543 -19.842 C 1032.043 -9.42 1123.643 18.638 1215.143 16.233 C 1306.643 13.828 1398.043 -19.04 1443.643 -35.474 L 1489.343 -51.908 L 1489.343 -290 L 1443.643 -290 C 1398.043 -290 1306.643 -290 1215.143 -290 C 1123.643 -290 1032.043 -290 940.543 -290 C 849.043 -290 757.643 -290 666.343 -290 C 575.043 -290 483.643 -290 392.343 -290 C 301.043 -290 209.643 -290 118.143 -290 C 26.643 -290 -64.957 -290 -156.457 -290 C -247.957 -290 -339.357 -290 -384.957 -290 L -430.657 -290 L -430.657 -65.536 Z" fill="#e34c67" style=""/>
  <path d="M -430.657 -116.842 L -384.957 -105.218 C -339.357 -93.594 -247.957 -70.346 -156.457 -60.325 C -64.957 -50.305 26.643 -53.511 118.143 -62.33 C 209.643 -71.148 301.043 -85.578 392.343 -101.37 C 483.643 -117.083 575.043 -134.238 666.343 -126.622 C 757.643 -119.007 849.043 -86.62 940.543 -80.367 C 1032.043 -74.114 1123.643 -93.835 1215.143 -105.378 C 1306.643 -116.842 1398.043 -120.049 1443.643 -121.652 L 1489.343 -123.255 L 1489.343 -290 L 1443.643 -290 C 1398.043 -290 1306.643 -290 1215.143 -290 C 1123.643 -290 1032.043 -290 940.543 -290 C 849.043 -290 757.643 -290 666.343 -290 C 575.043 -290 483.643 -290 392.343 -290 C 301.043 -290 209.643 -290 118.143 -290 C 26.643 -290 -64.957 -290 -156.457 -290 C -247.957 -290 -339.357 -290 -384.957 -290 L -430.657 -290 L -430.657 -116.842 Z" fill="#d53867" style=""/>
  <path d="M0 109L45.7 115.8C91.3 122.7 182.7 136.3 274.2 145.5C365.7 154.7 457.3 159.3 548.8 146.3C640.3 133.3 731.7 102.7 823 101C914.3 99.3 1005.7 126.7 1097 129.2C1188.3 131.7 1279.7 109.3 1371.2 100.7C1462.7 92 1554.3 97 1645.8 104.7C1737.3 112.3 1828.7 122.7 1874.3 127.8L1920 133L1920 0L1874.3 0C1828.7 0 1737.3 0 1645.8 0C1554.3 0 1462.7 0 1371.2 0C1279.7 0 1188.3 0 1097 0C1005.7 0 914.3 0 823 0C731.7 0 640.3 0 548.8 0C457.3 0 365.7 0 274.2 0C182.7 0 91.3 0 45.7 0L0 0Z" fill="#c62368" transform="matrix(1, 0, 0, 1, -430.657258, -290.000003)"/>
  <path d="M -431.851 362.691 L -386.151 362.691 C -340.551 362.691 -249.151 362.691 -157.651 358.986 C -66.151 355.203 25.449 347.792 116.949 336.598 C 208.449 325.404 299.849 310.427 391.149 319.614 C 482.449 328.723 573.849 361.919 665.149 361.302 C 756.449 360.607 847.849 326.176 939.349 325.404 C 1030.849 324.632 1122.449 357.519 1213.949 367.092 C 1305.449 376.587 1396.849 362.691 1442.449 355.743 L 1488.149 348.795 L 1488.149 790.379 L 1442.449 790.379 C 1396.849 790.379 1305.449 790.379 1213.949 790.379 C 1122.449 790.379 1030.849 790.379 939.349 790.379 C 847.849 790.379 756.449 790.379 665.149 790.379 C 573.849 790.379 482.449 790.379 391.149 790.379 C 299.849 790.379 208.449 790.379 116.949 790.379 C 25.449 790.379 -66.151 790.379 -157.651 790.379 C -249.151 790.379 -340.551 790.379 -386.151 790.379 L -431.851 790.379 L -431.851 362.691 Z" fill="#fa7268" style=""/>
  <path d="M -431.851 385.851 L -386.151 401.446 C -340.551 416.963 -249.151 448.152 -157.651 461.662 C -66.151 475.172 25.449 471.003 116.949 452.243 C 208.449 433.484 299.849 399.979 391.149 399.13 C 482.449 398.203 573.849 429.855 665.149 437.421 C 756.449 445.064 847.849 428.543 939.349 428.543 C 1030.849 428.543 1122.449 445.064 1213.949 446.608 C 1305.449 448.152 1396.849 434.719 1442.449 428.08 L 1488.149 421.363 L 1488.149 790.379 L 1442.449 790.379 C 1396.849 790.379 1305.449 790.379 1213.949 790.379 C 1122.449 790.379 1030.849 790.379 939.349 790.379 C 847.849 790.379 756.449 790.379 665.149 790.379 C 573.849 790.379 482.449 790.379 391.149 790.379 C 299.849 790.379 208.449 790.379 116.949 790.379 C 25.449 790.379 -66.151 790.379 -157.651 790.379 C -249.151 790.379 -340.551 790.379 -386.151 790.379 L -431.851 790.379 L -431.851 385.851 Z" fill="#ef5f67" style=""/>
  <path d="M -431.851 571.903 L -386.151 570.591 C -340.551 569.355 -249.151 566.731 -157.651 552.603 C -66.151 538.476 25.449 512.691 116.949 508.754 C 208.449 504.739 299.849 522.495 391.149 528.671 C 482.449 534.847 573.849 529.443 665.149 530.215 C 756.449 530.987 847.849 537.935 939.349 527.899 C 1030.849 517.863 1122.449 490.843 1213.949 493.159 C 1305.449 495.475 1396.849 527.127 1442.449 542.953 L 1488.149 558.779 L 1488.149 790.379 L 1442.449 790.379 C 1396.849 790.379 1305.449 790.379 1213.949 790.379 C 1122.449 790.379 1030.849 790.379 939.349 790.379 C 847.849 790.379 756.449 790.379 665.149 790.379 C 573.849 790.379 482.449 790.379 391.149 790.379 C 299.849 790.379 208.449 790.379 116.949 790.379 C 25.449 790.379 -66.151 790.379 -157.651 790.379 C -249.151 790.379 -340.551 790.379 -386.151 790.379 L -431.851 790.379 L -431.851 571.903 Z" fill="#e34c67" style=""/>
  <path d="M -431.851 621.311 L -386.151 610.117 C -340.551 598.923 -249.151 576.535 -157.651 566.885 C -66.151 557.235 25.449 560.323 116.949 568.815 C 208.449 577.307 299.849 591.203 391.149 606.411 C 482.449 621.543 573.849 638.063 665.149 630.729 C 756.449 623.395 847.849 592.207 939.349 586.185 C 1030.849 580.163 1122.449 599.155 1213.949 610.271 C 1305.449 621.311 1396.849 624.399 1442.449 625.943 L 1488.149 627.487 L 1488.149 790.379 L 1442.449 790.379 C 1396.849 790.379 1305.449 790.379 1213.949 790.379 C 1122.449 790.379 1030.849 790.379 939.349 790.379 C 847.849 790.379 756.449 790.379 665.149 790.379 C 573.849 790.379 482.449 790.379 391.149 790.379 C 299.849 790.379 208.449 790.379 116.949 790.379 C 25.449 790.379 -66.151 790.379 -157.651 790.379 C -249.151 790.379 -340.551 790.379 -386.151 790.379 L -431.851 790.379 L -431.851 621.311 Z" fill="#d53867" style=""/>
  <path d="M -431.851 703.915 L -386.151 698.665 C -340.551 693.339 -249.151 682.839 -157.651 675.737 C -66.151 668.635 25.449 665.083 116.949 675.119 C 208.449 685.155 299.849 708.779 391.149 710.091 C 482.449 711.403 573.849 690.251 665.149 688.321 C 756.449 686.391 847.849 703.683 939.349 710.323 C 1030.849 717.039 1122.449 713.179 1213.949 707.235 C 1305.449 701.367 1396.849 693.339 1442.449 689.401 L 1488.149 685.387 L 1488.149 790.379 L 1442.449 790.379 C 1396.849 790.379 1305.449 790.379 1213.949 790.379 C 1122.449 790.379 1030.849 790.379 939.349 790.379 C 847.849 790.379 756.449 790.379 665.149 790.379 C 573.849 790.379 482.449 790.379 391.149 790.379 C 299.849 790.379 208.449 790.379 116.949 790.379 C 25.449 790.379 -66.151 790.379 -157.651 790.379 C -249.151 790.379 -340.551 790.379 -386.151 790.379 L -431.851 790.379 L -431.851 703.915 Z" fill="#c62368" style=""/>
</svg>