<svg id="visual" viewBox="0 0 1920 1080" width="1920" height="1080" xmlns="http://www.w3.org/2000/svg" xmlns:xlink="http://www.w3.org/1999/xlink" version="1.1"><rect x="0" y="0" width="1920" height="1080" fill="#001220"></rect><path d="M0 527L45.7 527C91.3 527 182.7 527 274.2 522.2C365.7 517.3 457.3 507.7 548.8 493.2C640.3 478.7 731.7 459.3 823 471.2C914.3 483 1005.7 526 1097 525.2C1188.3 524.3 1279.7 479.7 1371.2 478.7C1462.7 477.7 1554.3 520.3 1645.8 532.7C1737.3 545 1828.7 527 1874.3 518L1920 509L1920 1081L1874.3 1081C1828.7 1081 1737.3 1081 1645.8 1081C1554.3 1081 1462.7 1081 1371.2 1081C1279.7 1081 1188.3 1081 1097 1081C1005.7 1081 914.3 1081 823 1081C731.7 1081 640.3 1081 548.8 1081C457.3 1081 365.7 1081 274.2 1081C182.7 1081 91.3 1081 45.7 1081L0 1081Z" fill="#fa7268"></path><path d="M0 557L45.7 577.2C91.3 597.3 182.7 637.7 274.2 655.2C365.7 672.7 457.3 667.3 548.8 643C640.3 618.7 731.7 575.3 823 574.2C914.3 573 1005.7 614 1097 623.8C1188.3 633.7 1279.7 612.3 1371.2 612.3C1462.7 612.3 1554.3 633.7 1645.8 635.7C1737.3 637.7 1828.7 620.3 1874.3 611.7L1920 603L1920 1081L1874.3 1081C1828.7 1081 1737.3 1081 1645.8 1081C1554.3 1081 1462.7 1081 1371.2 1081C1279.7 1081 1188.3 1081 1097 1081C1005.7 1081 914.3 1081 823 1081C731.7 1081 640.3 1081 548.8 1081C457.3 1081 365.7 1081 274.2 1081C182.7 1081 91.3 1081 45.7 1081L0 1081Z" fill="#ef5f67"></path><path d="M0 798L45.7 796.3C91.3 794.7 182.7 791.3 274.2 773C365.7 754.7 457.3 721.3 548.8 716.2C640.3 711 731.7 734 823 742C914.3 750 1005.7 743 1097 744C1188.3 745 1279.7 754 1371.2 741C1462.7 728 1554.3 693 1645.8 696C1737.3 699 1828.7 740 1874.3 760.5L1920 781L1920 1081L1874.3 1081C1828.7 1081 1737.3 1081 1645.8 1081C1554.3 1081 1462.7 1081 1371.2 1081C1279.7 1081 1188.3 1081 1097 1081C1005.7 1081 914.3 1081 823 1081C731.7 1081 640.3 1081 548.8 1081C457.3 1081 365.7 1081 274.2 1081C182.7 1081 91.3 1081 45.7 1081L0 1081Z" fill="#e34c67"></path><path d="M0 862L45.7 847.5C91.3 833 182.7 804 274.2 791.5C365.7 779 457.3 783 548.8 794C640.3 805 731.7 823 823 842.7C914.3 862.3 1005.7 883.7 1097 874.2C1188.3 864.7 1279.7 824.3 1371.2 816.5C1462.7 808.7 1554.3 833.3 1645.8 847.7C1737.3 862 1828.7 866 1874.3 868L1920 870L1920 1081L1874.3 1081C1828.7 1081 1737.3 1081 1645.8 1081C1554.3 1081 1462.7 1081 1371.2 1081C1279.7 1081 1188.3 1081 1097 1081C1005.7 1081 914.3 1081 823 1081C731.7 1081 640.3 1081 548.8 1081C457.3 1081 365.7 1081 274.2 1081C182.7 1081 91.3 1081 45.7 1081L0 1081Z" fill="#d53867"></path><path d="M0 969L45.7 962.2C91.3 955.3 182.7 941.7 274.2 932.5C365.7 923.3 457.3 918.7 548.8 931.7C640.3 944.7 731.7 975.3 823 977C914.3 978.7 1005.7 951.3 1097 948.8C1188.3 946.3 1279.7 968.7 1371.2 977.3C1462.7 986 1554.3 981 1645.8 973.3C1737.3 965.7 1828.7 955.3 1874.3 950.2L1920 945L1920 1081L1874.3 1081C1828.7 1081 1737.3 1081 1645.8 1081C1554.3 1081 1462.7 1081 1371.2 1081C1279.7 1081 1188.3 1081 1097 1081C1005.7 1081 914.3 1081 823 1081C731.7 1081 640.3 1081 548.8 1081C457.3 1081 365.7 1081 274.2 1081C182.7 1081 91.3 1081 45.7 1081L0 1081Z" fill="#c62368"></path></svg>