<svg id="visual" viewBox="0 0 1920 1080" width="1920" height="1080" xmlns="http://www.w3.org/2000/svg" xmlns:xlink="http://www.w3.org/1999/xlink" version="1.1"><rect x="0" y="0" width="1920" height="1080" fill="#001220"></rect><path d="M0 551L45.7 551C91.3 551 182.7 551 274.2 555.8C365.7 560.7 457.3 570.3 548.8 584.8C640.3 599.3 731.7 618.7 823 606.8C914.3 595 1005.7 552 1097 552.8C1188.3 553.7 1279.7 598.3 1371.2 599.3C1462.7 600.3 1554.3 557.7 1645.8 545.3C1737.3 533 1828.7 551 1874.3 560L1920 569L1920 0L1874.3 0C1828.7 0 1737.3 0 1645.8 0C1554.3 0 1462.7 0 1371.2 0C1279.7 0 1188.3 0 1097 0C1005.7 0 914.3 0 823 0C731.7 0 640.3 0 548.8 0C457.3 0 365.7 0 274.2 0C182.7 0 91.3 0 45.7 0L0 0Z" fill="#fa7268"></path><path d="M0 521L45.7 500.8C91.3 480.7 182.7 440.3 274.2 422.8C365.7 405.3 457.3 410.7 548.8 435C640.3 459.3 731.7 502.7 823 503.8C914.3 505 1005.7 464 1097 454.2C1188.3 444.3 1279.7 465.7 1371.2 465.7C1462.7 465.7 1554.3 444.3 1645.8 442.3C1737.3 440.3 1828.7 457.7 1874.3 466.3L1920 475L1920 0L1874.3 0C1828.7 0 1737.3 0 1645.8 0C1554.3 0 1462.7 0 1371.2 0C1279.7 0 1188.3 0 1097 0C1005.7 0 914.3 0 823 0C731.7 0 640.3 0 548.8 0C457.3 0 365.7 0 274.2 0C182.7 0 91.3 0 45.7 0L0 0Z" fill="#ef5f67"></path><path d="M0 280L45.7 281.7C91.3 283.3 182.7 286.7 274.2 305C365.7 323.3 457.3 356.7 548.8 361.8C640.3 367 731.7 344 823 336C914.3 328 1005.7 335 1097 334C1188.3 333 1279.7 324 1371.2 337C1462.7 350 1554.3 385 1645.8 382C1737.3 379 1828.7 338 1874.3 317.5L1920 297L1920 0L1874.3 0C1828.7 0 1737.3 0 1645.8 0C1554.3 0 1462.7 0 1371.2 0C1279.7 0 1188.3 0 1097 0C1005.7 0 914.3 0 823 0C731.7 0 640.3 0 548.8 0C457.3 0 365.7 0 274.2 0C182.7 0 91.3 0 45.7 0L0 0Z" fill="#e34c67"></path><path d="M0 216L45.7 230.5C91.3 245 182.7 274 274.2 286.5C365.7 299 457.3 295 548.8 284C640.3 273 731.7 255 823 235.3C914.3 215.7 1005.7 194.3 1097 203.8C1188.3 213.3 1279.7 253.7 1371.2 261.5C1462.7 269.3 1554.3 244.7 1645.8 230.3C1737.3 216 1828.7 212 1874.3 210L1920 208L1920 0L1874.3 0C1828.7 0 1737.3 0 1645.8 0C1554.3 0 1462.7 0 1371.2 0C1279.7 0 1188.3 0 1097 0C1005.7 0 914.3 0 823 0C731.7 0 640.3 0 548.8 0C457.3 0 365.7 0 274.2 0C182.7 0 91.3 0 45.7 0L0 0Z" fill="#d53867"></path><path d="M0 109L45.7 115.8C91.3 122.7 182.7 136.3 274.2 145.5C365.7 154.7 457.3 159.3 548.8 146.3C640.3 133.3 731.7 102.7 823 101C914.3 99.3 1005.7 126.7 1097 129.2C1188.3 131.7 1279.7 109.3 1371.2 100.7C1462.7 92 1554.3 97 1645.8 104.7C1737.3 112.3 1828.7 122.7 1874.3 127.8L1920 133L1920 0L1874.3 0C1828.7 0 1737.3 0 1645.8 0C1554.3 0 1462.7 0 1371.2 0C1279.7 0 1188.3 0 1097 0C1005.7 0 914.3 0 823 0C731.7 0 640.3 0 548.8 0C457.3 0 365.7 0 274.2 0C182.7 0 91.3 0 45.7 0L0 0Z" fill="#c62368"></path></svg>